<svg width="218" height="60" viewBox="0 0 218 60" fill="none" xmlns="http://www.w3.org/2000/svg">
<rect y="4.15417" width="5.53886" height="55.3886" rx="2.76943" fill="#FD7401"/>
<rect x="22.1554" y="4.15417" width="5.53886" height="55.3886" rx="2.76943" fill="#FD7401"/>
<rect x="44.3109" y="4.15417" width="5.53886" height="55.3886" rx="2.76943" fill="#FD7401"/>
<rect x="11.0778" width="5.53886" height="55.3886" rx="2.76943" fill="#1E2772"/>
<rect x="33.2332" width="5.53886" height="55.3886" rx="2.76943" fill="#1E2772"/>
<path d="M57.8812 44.4909C57.078 44.4909 56.4549 44.2693 56.0118 43.8262C55.5964 43.3831 55.3887 42.7462 55.3887 41.9153V17.1981C55.3887 16.3396 55.5964 15.6888 56.0118 15.2457C56.4549 14.7749 57.0226 14.5395 57.715 14.5395C58.352 14.5395 58.8228 14.6641 59.1274 14.9134C59.4597 15.1349 59.8475 15.5226 60.2906 16.0765L76.201 36.7226H75.1209V17.0735C75.1209 16.2704 75.3286 15.6473 75.744 15.2042C76.1871 14.761 76.8102 14.5395 77.6134 14.5395C78.4165 14.5395 79.0258 14.761 79.4412 15.2042C79.8566 15.6473 80.0643 16.2704 80.0643 17.0735V41.9984C80.0643 42.7738 79.8704 43.3831 79.4827 43.8262C79.095 44.2693 78.5688 44.4909 77.9042 44.4909C77.2672 44.4909 76.7548 44.3663 76.3671 44.117C76.0071 43.8678 75.6055 43.4662 75.1624 42.9123L59.2936 22.2662H60.3321V41.9153C60.3321 42.7462 60.1244 43.3831 59.709 43.8262C59.2936 44.2693 58.6843 44.4909 57.8812 44.4909Z" fill="#1E2772"/>
<path d="M95.9766 44.574C93.678 44.574 91.6979 44.1447 90.0362 43.2862C88.3745 42.4277 87.0868 41.2091 86.1728 39.6305C85.2866 38.052 84.8435 36.1826 84.8435 34.0224C84.8435 31.9177 85.2728 30.076 86.1313 28.4974C87.0175 26.9189 88.2222 25.6865 89.7454 24.8002C91.2963 23.8863 93.0549 23.4294 95.0212 23.4294C96.4613 23.4294 97.7491 23.6648 98.8845 24.1356C100.048 24.6064 101.031 25.2849 101.834 26.1711C102.665 27.0573 103.288 28.1374 103.703 29.4113C104.146 30.6576 104.368 32.07 104.368 33.6486C104.368 34.1471 104.188 34.5348 103.828 34.8117C103.496 35.061 103.011 35.1856 102.374 35.1856H89.0392V32.1946H100.712L100.048 32.8177C100.048 31.5438 99.8538 30.4776 99.4661 29.619C99.1061 28.7605 98.5661 28.1097 97.846 27.6666C97.1536 27.1958 96.2813 26.9604 95.2289 26.9604C94.0657 26.9604 93.0687 27.2373 92.2379 27.7912C91.4348 28.3174 90.8116 29.079 90.3685 30.076C89.9531 31.0453 89.7454 32.2085 89.7454 33.5655V33.8563C89.7454 36.1272 90.2716 37.8304 91.324 38.9659C92.4041 40.0737 93.9826 40.6275 96.0597 40.6275C96.7798 40.6275 97.5829 40.5445 98.4691 40.3783C99.383 40.1844 100.242 39.8659 101.045 39.4228C101.626 39.0905 102.139 38.952 102.582 39.0074C103.025 39.0351 103.371 39.1874 103.62 39.4644C103.897 39.7413 104.063 40.0875 104.119 40.5029C104.174 40.8906 104.091 41.2922 103.87 41.7076C103.676 42.123 103.329 42.4831 102.831 42.7877C101.862 43.397 100.74 43.8539 99.4661 44.1586C98.2199 44.4355 97.0567 44.574 95.9766 44.574Z" fill="#1E2772"/>
<path d="M117.704 44.574C115.904 44.574 114.395 44.2693 113.176 43.6601C111.986 43.0508 111.099 42.1646 110.518 41.0014C109.936 39.8106 109.645 38.3428 109.645 36.598V27.7497H107.485C106.821 27.7497 106.308 27.5835 105.948 27.2512C105.588 26.8912 105.408 26.4065 105.408 25.7972C105.408 25.1603 105.588 24.6756 105.948 24.3433C106.308 24.0109 106.821 23.8448 107.485 23.8448H109.645V20.0645C109.645 19.206 109.867 18.5552 110.31 18.1121C110.781 17.6689 111.432 17.4474 112.263 17.4474C113.093 17.4474 113.73 17.6689 114.173 18.1121C114.617 18.5552 114.838 19.206 114.838 20.0645V23.8448H119.241C119.906 23.8448 120.418 24.0109 120.779 24.3433C121.139 24.6756 121.319 25.1603 121.319 25.7972C121.319 26.4065 121.139 26.8912 120.779 27.2512C120.418 27.5835 119.906 27.7497 119.241 27.7497H114.838V36.3072C114.838 37.6366 115.129 38.6335 115.71 39.2982C116.292 39.9629 117.234 40.2952 118.535 40.2952C119.006 40.2952 119.422 40.2537 119.782 40.1706C120.142 40.0875 120.46 40.0321 120.737 40.0044C121.069 39.9767 121.346 40.0875 121.568 40.3367C121.789 40.5583 121.9 41.0291 121.9 41.7492C121.9 42.303 121.803 42.8015 121.609 43.2446C121.443 43.6601 121.125 43.9509 120.654 44.117C120.294 44.2278 119.823 44.3247 119.241 44.4078C118.66 44.5186 118.148 44.574 117.704 44.574Z" fill="#1E2772"/>
<path d="M132.518 44.4909C131.826 44.4909 131.23 44.3247 130.732 43.9924C130.233 43.6324 129.832 43.0785 129.527 42.3307L123.504 26.9604C123.254 26.2957 123.171 25.7141 123.254 25.2156C123.365 24.6895 123.628 24.274 124.044 23.9694C124.459 23.6648 125.013 23.5125 125.705 23.5125C126.315 23.5125 126.813 23.6648 127.201 23.9694C127.589 24.2463 127.921 24.7864 128.198 25.5895L133.224 39.4228H132.269L137.462 25.2572C137.683 24.6479 137.974 24.2048 138.334 23.9279C138.722 23.6509 139.22 23.5125 139.83 23.5125C140.439 23.5125 140.937 23.6648 141.325 23.9694C141.713 24.2463 142.004 24.6756 142.197 25.2572L147.307 39.4228H146.435L151.503 25.4649C151.78 24.7172 152.126 24.2048 152.541 23.9279C152.984 23.6509 153.469 23.5125 153.995 23.5125C154.66 23.5125 155.172 23.6786 155.532 24.0109C155.892 24.3433 156.1 24.7725 156.155 25.2987C156.211 25.7972 156.114 26.3511 155.865 26.9604L149.883 42.3307C149.606 43.0508 149.204 43.5908 148.678 43.9509C148.179 44.3109 147.584 44.4909 146.892 44.4909C146.199 44.4909 145.59 44.3109 145.064 43.9509C144.565 43.5908 144.178 43.0508 143.901 42.3307L138.459 27.9158H140.827L135.509 42.2892C135.232 43.0369 134.845 43.5908 134.346 43.9509C133.848 44.3109 133.238 44.4909 132.518 44.4909Z" fill="#1E2772"/>
<path d="M168.941 44.574C166.836 44.574 165.008 44.1447 163.457 43.2862C161.906 42.4277 160.702 41.2091 159.843 39.6305C158.985 38.0243 158.555 36.1411 158.555 33.9809C158.555 32.3469 158.791 30.893 159.261 29.619C159.76 28.3174 160.466 27.2096 161.38 26.2957C162.294 25.3541 163.388 24.6479 164.662 24.1771C165.936 23.6786 167.362 23.4294 168.941 23.4294C171.045 23.4294 172.873 23.8586 174.424 24.7172C175.975 25.5757 177.18 26.7942 178.038 28.3728C178.897 29.9514 179.326 31.8207 179.326 33.9809C179.326 35.6149 179.077 37.0827 178.578 38.3843C178.107 39.6859 177.415 40.8076 176.501 41.7492C175.587 42.6631 174.493 43.3693 173.219 43.8678C171.945 44.3386 170.519 44.574 168.941 44.574ZM168.941 40.6275C169.965 40.6275 170.865 40.3783 171.641 39.8798C172.416 39.3813 173.012 38.6474 173.427 37.6781C173.87 36.6811 174.092 35.4487 174.092 33.9809C174.092 31.7654 173.621 30.1175 172.679 29.0375C171.738 27.9297 170.492 27.3758 168.941 27.3758C167.916 27.3758 167.016 27.6251 166.24 28.1236C165.465 28.5944 164.856 29.3283 164.413 30.3253C163.997 31.2946 163.79 32.5131 163.79 33.9809C163.79 36.1688 164.26 37.8304 165.202 38.9659C166.144 40.0737 167.39 40.6275 168.941 40.6275Z" fill="#1E2772"/>
<path d="M186.271 44.4909C185.412 44.4909 184.747 44.2693 184.277 43.8262C183.834 43.3554 183.612 42.6908 183.612 41.8322V26.1296C183.612 25.271 183.834 24.6202 184.277 24.1771C184.72 23.734 185.343 23.5125 186.146 23.5125C186.949 23.5125 187.572 23.734 188.015 24.1771C188.458 24.6202 188.68 25.271 188.68 26.1296V28.7467H188.265C188.652 27.085 189.414 25.8249 190.549 24.9664C191.685 24.1079 193.194 23.5955 195.077 23.4294C195.659 23.374 196.116 23.5263 196.448 23.8863C196.808 24.2187 197.016 24.7448 197.071 25.4649C197.127 26.1573 196.961 26.725 196.573 27.1681C196.213 27.5835 195.659 27.8328 194.911 27.9158L193.997 27.9989C192.308 28.1651 191.034 28.6913 190.175 29.5775C189.317 30.436 188.888 31.6546 188.888 33.2332V41.8322C188.888 42.6908 188.666 43.3554 188.223 43.8262C187.78 44.2693 187.129 44.4909 186.271 44.4909Z" fill="#1E2772"/>
<path d="M202.455 44.4909C201.624 44.4909 200.987 44.2693 200.544 43.8262C200.101 43.3554 199.88 42.6908 199.88 41.8322V17.1566C199.88 16.2981 200.101 15.6473 200.544 15.2042C200.987 14.761 201.624 14.5395 202.455 14.5395C203.286 14.5395 203.923 14.761 204.366 15.2042C204.837 15.6473 205.072 16.2981 205.072 17.1566V32.4854H205.155L212.01 25.2572C212.564 24.7033 213.048 24.274 213.464 23.9694C213.879 23.6648 214.447 23.5125 215.167 23.5125C215.887 23.5125 216.427 23.7063 216.787 24.094C217.175 24.4541 217.369 24.8972 217.369 25.4234C217.369 25.9495 217.119 26.4757 216.621 27.0019L209.393 34.6456V32.4854L217.327 41.043C217.826 41.5691 218.047 42.1092 217.992 42.6631C217.964 43.1893 217.742 43.6324 217.327 43.9924C216.912 44.3247 216.385 44.4909 215.748 44.4909C214.973 44.4909 214.35 44.3386 213.879 44.0339C213.436 43.7293 212.938 43.2723 212.384 42.6631L205.155 35.1025H205.072V41.8322C205.072 43.6047 204.2 44.4909 202.455 44.4909Z" fill="#1E2772"/>
</svg>
